<svg xmlns="http://www.w3.org/2000/svg" width="1600" height="1000" viewBox="0 0 1600 1000" role="img" aria-label="Jim's travel photo — sunset lookout (placeholder artwork)">
  <defs>
    <linearGradient id="s13-sky" x1="0" y1="0" x2="0" y2="1">
      <stop offset="0" stop-color="#fb7d3c"/>
      <stop offset="1" stop-color="#ffd166"/>
    </linearGradient>
    <linearGradient id="s13-sea" x1="0" y1="0" x2="0" y2="1">
      <stop offset="0" stop-color="#9a2812"/>
      <stop offset="1" stop-color="#430f07"/>
    </linearGradient>
  </defs>
  <rect width="1600" height="620" fill="url(#s13-sky)"/>
  <circle cx="1152" cy="341" r="110" fill="#fff5ed" opacity="0.9"/>
  <circle cx="1152" cy="341" r="160" fill="#fff5ed" opacity="0.25"/>
  <rect y="620" width="1600" height="380" fill="url(#s13-sea)"/>
  <path d="M0 620 C 320 570, 512 460, 800 620 Z" fill="#5b4e43" opacity="0.85"/>
  <path d="M880.0000000000001 620 C 1120 520, 1360 550, 1600 600 L 1600 620 Z" fill="#5b4e43" opacity="0.6"/>
  <path d="M0 660 q 200 26 400 0 t 400 0 t 400 0 t 400 0" stroke="#ffffff" stroke-width="6" fill="none" opacity="0.35"/>
  <path d="M0 730 q 200 26 400 0 t 400 0 t 400 0 t 400 0" stroke="#ffffff" stroke-width="5" fill="none" opacity="0.22"/>
  <g font-family="Arial, Helvetica, sans-serif">
    <rect x="28" y="926" rx="10" width="592.5" height="46" fill="#0f2b36" opacity="0.72"/>
    <text x="48" y="956" font-size="21" fill="#ffffff">PLACEHOLDER · Jim's travel photo — sunset lookout</text>
  </g>
</svg>
